<svg width="926" height="176" viewBox="0 0 926 176" fill="none" xmlns="http://www.w3.org/2000/svg">
<path d="M50.5339 173.521C50.441 173.521 50.3481 173.521 50.2552 173.428C50.1623 173.335 50.0694 173.242 50.0694 173.149L17.371 75.7974H16.6279L20.7152 172.871C20.7152 172.964 20.7152 173.056 20.7152 173.056C20.7152 173.056 20.6223 173.149 20.6223 173.242C20.5294 173.335 20.5294 173.335 20.4365 173.335C20.3436 173.335 20.2507 173.428 20.2507 173.428H0.464466C0.371573 173.428 0.278682 173.428 0.278682 173.335C0.185789 173.335 0.185778 173.242 0.0928846 173.242C-8.506e-06 173.149 0 173.149 0 173.056C0 172.964 0 172.871 0 172.871L5.01622 38.733C5.01622 38.5472 5.10911 38.4543 5.20201 38.3614C5.2949 38.2685 5.48069 38.1757 5.57359 38.1757H46.8181C46.911 38.1757 47.0039 38.1757 47.0968 38.2685C47.1897 38.3614 47.2826 38.4543 47.2826 38.5472L78.9592 129.582H79.8881L107.199 38.5472C107.199 38.4543 107.292 38.3614 107.384 38.2685C107.477 38.1757 107.57 38.1757 107.756 38.1757H148.35C148.536 38.1757 148.629 38.2685 148.722 38.3614C148.815 38.4543 148.908 38.6401 148.908 38.733L152.345 172.871C152.345 172.964 152.345 173.056 152.345 173.056C152.345 173.149 152.252 173.149 152.252 173.242C152.159 173.335 152.159 173.335 152.066 173.335C151.973 173.335 151.88 173.335 151.88 173.335H111.565C111.379 173.335 111.286 173.242 111.193 173.149C111.1 173.056 111.007 172.871 111.007 172.778L110.264 75.6116H109.521L81.1886 173.149C81.1886 173.242 81.0957 173.335 81.0028 173.428C80.9099 173.521 80.817 173.521 80.6312 173.521H50.5339Z" fill="black"/>
<path d="M216.627 170.641H216.72C224.151 169.898 228.424 163.303 228.424 124.845C228.424 87.7807 222.293 79.9777 213.469 79.6061H213.376C205.666 80.3492 201.3 87.3162 201.3 125.402C201.3 162.188 207.43 170.27 216.627 170.641ZM216.441 75.0543C244.959 75.0543 267.161 94.0045 267.161 123.73C267.161 147.975 252.948 160.702 241.708 167.39C233.069 172.406 223.315 175.1 213.376 175.1C184.857 175.1 162.47 156.336 162.47 126.61C162.47 102.365 176.683 89.4528 187.923 82.7645C196.655 77.7482 206.502 75.1472 216.441 75.0543Z" fill="black"/>
<path d="M278.308 80.8137L313.236 75.7046C313.329 75.7046 313.421 75.7046 313.514 75.7046C313.607 75.7046 313.7 75.7975 313.7 75.7975C313.793 75.8904 313.793 75.8904 313.886 75.9832C313.886 76.0761 313.979 76.169 313.979 76.2619V99.4852C313.979 99.5781 314.072 99.7639 314.072 99.8568C314.165 99.9497 314.258 100.043 314.35 100.043C314.443 100.043 314.629 100.043 314.722 100.043C314.815 99.9497 314.908 99.8568 315.001 99.7639C317.416 93.9116 320.574 88.338 324.29 83.2289C326.427 80.7208 329.12 78.6771 332.093 77.2837C335.066 75.8904 338.317 75.1472 341.661 75.1472C345.377 75.2401 349.185 75.8904 352.715 77.0051C352.808 77.0051 352.994 77.098 352.994 77.2837C352.994 77.4695 353.087 77.5624 352.994 77.6553L344.726 108.589C344.726 108.682 344.634 108.775 344.634 108.775C344.541 108.867 344.541 108.867 344.448 108.96C344.355 108.96 344.262 109.053 344.262 109.053C344.169 109.053 344.076 109.053 344.076 109.053C337.295 106.545 330.235 104.409 325.962 103.294C323.082 102.551 320.11 102.736 317.323 103.758C316.394 104.13 315.465 104.501 314.629 104.966C314.536 105.059 314.443 105.059 314.443 105.152C314.35 105.245 314.35 105.337 314.35 105.43V172.871C314.35 173.057 314.257 173.149 314.165 173.242C314.072 173.335 313.886 173.428 313.793 173.428H278.494C278.308 173.428 278.215 173.335 278.122 173.242C278.029 173.149 277.936 172.964 277.936 172.871V81.4639C277.936 81.371 277.936 81.2782 277.936 81.2782C277.936 81.1853 278.029 81.1853 278.029 81.0924C278.029 80.9995 278.122 80.9995 278.215 80.9995C278.122 80.8137 278.215 80.8137 278.308 80.8137Z" fill="black"/>
<path d="M358.939 80.8137L393.867 75.7046C393.96 75.7046 394.053 75.7046 394.145 75.7046C394.238 75.7046 394.331 75.7975 394.331 75.7975C394.424 75.8904 394.424 75.8904 394.517 75.9832C394.517 76.0761 394.61 76.169 394.61 76.2619V99.4852C394.61 99.5781 394.703 99.7639 394.703 99.8568C394.796 99.9497 394.889 100.043 394.982 100.043C395.074 100.043 395.26 100.043 395.353 100.043C395.446 99.9497 395.539 99.8568 395.632 99.7639C398.047 93.9116 401.205 88.338 404.921 83.2289C407.058 80.7208 409.751 78.6771 412.724 77.2837C415.697 75.8904 418.948 75.1472 422.292 75.1472C426.008 75.2401 429.724 75.8904 433.346 77.0051C433.439 77.0051 433.625 77.098 433.625 77.2837C433.718 77.3766 433.718 77.5624 433.625 77.6553L425.265 108.682C425.265 108.775 425.172 108.867 425.172 108.867C425.079 108.96 425.079 108.96 424.986 109.053C424.893 109.053 424.8 109.146 424.8 109.146H424.614C417.833 106.638 410.773 104.501 406.5 103.387C403.621 102.644 400.648 102.829 397.861 103.851C396.932 104.223 396.003 104.594 395.167 105.059C395.074 105.152 394.982 105.152 394.982 105.245C394.889 105.337 394.889 105.43 394.889 105.523V172.964C394.889 173.149 394.796 173.242 394.703 173.335C394.61 173.428 394.424 173.521 394.331 173.521H359.125C358.939 173.521 358.846 173.428 358.753 173.335C358.66 173.242 358.567 173.057 358.567 172.964V81.5568C358.567 81.4639 358.567 81.3711 358.567 81.3711L358.66 81.1853C358.66 81.0924 358.753 81.0924 358.846 80.9995C358.753 80.8137 358.846 80.8137 358.939 80.8137Z" fill="black"/>
<path d="M479.607 79.2345C474.219 79.7918 468.646 85.6441 467.903 109.982C467.903 110.075 467.903 110.168 467.996 110.261C467.996 110.354 468.089 110.447 468.181 110.447C468.274 110.539 468.274 110.539 468.367 110.539C468.46 110.539 468.553 110.539 468.646 110.539L487.689 108.31C487.782 108.31 487.968 108.217 488.061 108.124C488.153 108.031 488.246 107.846 488.246 107.753C488.061 83.7862 485.645 79.4203 479.607 79.2345ZM516.579 162.56C516.579 162.653 516.486 162.745 516.393 162.745C509.054 169.712 499.486 175.1 478.307 175.1C453.783 175.1 432.51 158.844 432.51 127.539C432.51 102.272 444.958 90.3817 454.712 84.0649C463.723 78.0269 474.312 74.9614 485.181 75.0543C508.59 75.0543 521.781 88.6167 521.967 108.403C521.967 110.075 521.781 112.676 521.688 114.534C521.688 114.627 521.595 114.813 521.502 114.905C521.409 114.998 521.223 115.091 521.131 115.091H468.46C468.274 115.091 468.181 115.184 468.089 115.277C467.996 115.37 467.903 115.556 467.903 115.649C468.089 136.178 477.842 145.746 496.235 145.746C505.803 145.746 516.486 143.145 521.131 140.544C521.223 140.451 521.316 140.451 521.409 140.451C521.502 140.451 521.595 140.451 521.688 140.544C521.781 140.637 521.874 140.73 521.874 140.823C521.874 140.916 521.874 141.008 521.874 141.101C520.759 145.746 517.229 160.702 516.579 162.56Z" fill="black"/>
<path d="M603.898 79.8846L599.532 102.458C599.532 102.551 599.439 102.643 599.439 102.736C599.439 102.829 599.254 102.829 599.161 102.922C599.068 102.922 598.975 102.922 598.882 102.922C598.789 102.922 598.696 102.829 598.603 102.736C588.664 93.1684 575.937 80.1633 573.429 79.8846H573.244C567.67 80.2562 563.025 84.0648 563.025 89.6384C563.025 97.9059 570.085 101.157 580.303 107.102C597.953 116.856 606.778 120.479 606.778 141.38C606.778 150.391 600.275 161.723 593.401 166.833C585.97 172.313 576.959 175.193 567.763 175.1C555.965 174.914 544.354 173.242 532.928 170.27C532.835 170.27 532.649 170.177 532.649 170.084C532.556 169.991 532.556 169.805 532.556 169.712L535.25 145.467C535.25 145.374 535.343 145.281 535.343 145.188C535.343 145.096 535.529 145.003 535.622 145.003C535.715 145.003 535.808 144.91 535.901 145.003C535.993 145.003 536.086 145.096 536.179 145.096C547.419 154.478 564.512 170.363 568.506 170.548H568.692C571.2 170.363 573.615 169.155 575.287 167.297C576.959 165.439 577.888 162.931 577.795 160.423C577.795 152.806 572.408 149.369 558.845 141.473C544.261 132.648 532.835 127.074 532.835 108.496C532.835 93.7257 542.403 85.644 549.649 81.8354C557.359 77.3765 565.998 75.0542 574.916 75.1471C584.577 75.1471 594.237 76.6334 603.527 79.3273C603.62 79.4202 603.713 79.5131 603.805 79.6059C603.898 79.6988 603.991 79.7917 603.898 79.8846Z" fill="black"/>
<path d="M685.923 79.8846L681.557 102.458C681.557 102.551 681.464 102.643 681.464 102.736C681.371 102.829 681.278 102.829 681.185 102.922C681.092 102.922 681 102.922 680.907 102.922C680.814 102.922 680.721 102.829 680.628 102.829C670.688 93.2612 657.962 80.1633 655.454 79.8846H655.268C649.695 80.2562 645.05 84.0648 645.05 89.6384C645.05 97.9059 652.11 101.157 662.328 107.102C679.978 116.856 688.803 120.479 688.803 141.38C688.803 150.391 682.3 161.723 675.426 166.833C667.995 172.313 658.984 175.193 649.787 175.1C637.99 174.914 626.285 173.242 614.86 170.177C614.767 170.177 614.581 170.084 614.581 169.991C614.488 169.898 614.488 169.712 614.488 169.619L617.182 145.374C617.182 145.281 617.275 145.188 617.275 145.096C617.368 145.003 617.461 144.91 617.553 144.91C617.646 144.91 617.739 144.817 617.832 144.91C617.925 144.91 618.018 145.003 618.111 145.003C629.351 154.385 646.443 170.27 650.438 170.455H650.531C653.039 170.27 655.361 169.062 657.126 167.204C658.798 165.346 659.727 162.838 659.727 160.33C659.727 152.713 654.339 149.276 640.777 141.38C626.193 132.555 614.767 126.981 614.767 108.403C614.767 93.6328 624.335 85.5511 631.58 81.7425C639.291 77.2836 647.93 74.9613 656.847 75.0542C666.508 75.0542 676.169 76.5405 685.458 79.2344C685.644 79.2344 685.737 79.3273 685.83 79.5131C685.923 79.606 685.923 79.7917 685.923 79.8846Z" fill="black"/>
<path d="M732.463 48.2081L747.418 38.0828C747.511 38.0828 747.604 37.9899 747.604 37.897C747.604 37.8041 747.604 37.7112 747.604 37.6183C747.604 37.5254 747.511 37.4325 747.418 37.4325C747.325 37.3396 747.233 37.3396 747.14 37.3396L729.211 36.3178C729.118 36.3178 729.118 36.3178 729.025 36.3178C728.933 36.3178 728.933 36.2249 728.933 36.2249C728.933 36.2249 728.84 36.132 728.84 36.0391C728.84 35.9462 728.84 35.9462 728.84 35.8533L731.998 0.83263C731.998 0.739737 731.998 0.646848 731.905 0.553955C731.812 0.461061 731.719 0.368164 731.627 0.368164C731.534 0.368164 731.441 0.368164 731.348 0.368164C731.255 0.368164 731.162 0.461061 731.162 0.553955L716.578 32.6021C716.578 32.695 716.485 32.695 716.485 32.695C716.485 32.695 716.392 32.7879 716.299 32.7879C716.206 32.7879 716.206 32.7879 716.113 32.7879C716.02 32.7879 716.02 32.7879 715.928 32.7879L699.485 24.7991C699.393 24.7991 699.3 24.7991 699.207 24.7991C699.114 24.7991 699.021 24.892 699.021 24.892C698.928 24.9848 698.928 25.0777 698.928 25.0777C698.928 25.1706 698.928 25.2635 698.928 25.3564L707.196 41.6127C707.196 41.7056 707.196 41.7056 707.196 41.7985C707.196 41.8914 707.196 41.8914 707.196 41.9843C707.196 42.0772 707.196 42.0772 707.103 42.1701L707.01 42.263L674.404 57.1259C674.311 57.1259 674.219 57.2188 674.219 57.3117C674.219 57.4045 674.126 57.4974 674.219 57.5903C674.219 57.6832 674.311 57.7761 674.404 57.869C674.497 57.9619 674.59 57.9619 674.683 57.9619L710.447 54.5249C710.54 54.5249 710.54 54.5249 710.633 54.5249C710.726 54.5249 710.726 54.5249 710.818 54.6178L710.911 54.7107C710.911 54.7107 710.911 54.8035 711.004 54.8964L712.119 72.8248C712.119 72.9177 712.119 73.0106 712.212 73.1035C712.305 73.1964 712.305 73.1964 712.398 73.2893C712.491 73.3822 712.583 73.2893 712.676 73.2893C712.769 73.2893 712.862 73.1964 712.862 73.1035L722.802 58.0548C722.802 57.9619 722.895 57.9619 722.895 57.9619C722.895 57.9619 722.987 57.869 723.08 57.869C723.173 57.869 723.173 57.869 723.266 57.869C723.359 57.869 723.359 57.869 723.452 57.9619L757.729 83.3217C757.822 83.4146 757.915 83.4146 758.008 83.4146C758.101 83.4146 758.194 83.3217 758.287 83.3217C758.38 83.2288 758.38 83.136 758.38 83.0431C758.38 82.9502 758.38 82.8573 758.287 82.7644L732.37 48.9513C732.37 48.8584 732.277 48.8584 732.277 48.7655C732.277 48.6726 732.277 48.6726 732.277 48.5797C732.277 48.4868 732.277 48.4868 732.37 48.3939C732.37 48.301 732.37 48.301 732.463 48.2081Z" fill="black"/>
<path d="M701.25 80.6279L736.735 75.5188C736.828 75.5188 736.921 75.5188 737.014 75.5188C737.107 75.5188 737.2 75.6117 737.2 75.6117C737.293 75.7046 737.293 75.7046 737.386 75.7975C737.386 75.8904 737.479 75.9833 737.479 75.9833V172.685C737.479 172.871 737.386 172.964 737.293 173.057C737.2 173.149 737.014 173.242 736.921 173.242H701.436C701.25 173.242 701.157 173.149 701.064 173.057C700.972 172.964 700.879 172.778 700.879 172.685V80.9995C700.879 80.9066 700.972 80.7208 700.972 80.6279C700.972 80.6279 701.157 80.6279 701.25 80.6279Z" fill="black"/>
<path d="M796.559 79.2345C791.171 79.7918 785.69 85.6441 784.854 109.982C784.854 110.075 784.854 110.168 784.854 110.261C784.854 110.354 784.947 110.447 784.947 110.447C785.04 110.539 785.04 110.539 785.133 110.539C785.226 110.539 785.319 110.539 785.412 110.539L804.455 108.31C804.641 108.31 804.733 108.217 804.826 108.124C804.919 108.031 805.012 107.846 805.012 107.753C805.012 83.7862 802.597 79.4203 796.559 79.2345ZM833.53 162.56C833.53 162.653 833.437 162.745 833.344 162.745C826.006 169.712 816.438 175.1 795.258 175.1C770.734 175.1 749.462 158.844 749.462 127.539C749.462 102.272 761.91 90.3817 771.663 84.0649C780.674 78.0269 791.264 74.9614 802.132 75.0543C825.541 75.0543 838.732 88.6167 838.918 108.403C838.918 110.075 838.732 112.676 838.639 114.534C838.639 114.627 838.546 114.813 838.454 114.905C838.361 114.998 838.175 115.091 838.082 115.091H785.412C785.319 115.091 785.226 115.091 785.226 115.091C785.133 115.091 785.133 115.184 785.04 115.184C784.947 115.277 784.947 115.277 784.947 115.37C784.947 115.463 784.947 115.556 784.947 115.556C785.133 136.085 794.887 145.653 813.28 145.653C822.848 145.653 833.53 143.052 838.175 140.451C838.268 140.358 838.361 140.358 838.454 140.358C838.546 140.358 838.639 140.358 838.732 140.451C838.825 140.544 838.918 140.637 838.918 140.73C838.918 140.823 838.918 140.916 838.918 141.008C837.71 145.746 834.18 160.702 833.53 162.56Z" fill="black"/>
<path d="M851.273 80.8137L886.201 75.7046C886.293 75.7046 886.386 75.7046 886.479 75.7046C886.572 75.7046 886.665 75.7975 886.665 75.7975C886.758 75.8904 886.758 75.8904 886.851 75.9832C886.851 76.0761 886.944 76.169 886.944 76.2619V99.4852C886.944 99.5781 887.036 99.7639 887.036 99.8568C887.129 99.9497 887.222 100.043 887.315 100.043C887.408 100.043 887.594 100.043 887.687 100.043C887.78 99.9497 887.872 99.8568 887.965 99.7639C890.381 93.9116 893.539 88.338 897.255 83.2289C899.391 80.7208 902.085 78.6771 905.058 77.2837C908.03 75.8904 911.282 75.1472 914.626 75.1472C918.342 75.2401 922.057 75.8904 925.68 77.0051C925.773 77.0051 925.959 77.098 925.959 77.2837C925.959 77.4695 926.052 77.5624 925.959 77.6553L917.598 108.682C917.598 108.775 917.505 108.867 917.505 108.867C917.413 108.96 917.413 108.96 917.32 109.053C917.227 109.146 917.134 109.146 917.134 109.146C917.041 109.146 916.948 109.146 916.948 109.146C907.473 105.616 897.348 102.644 895.211 102.644C892.517 102.922 890.009 103.758 887.594 105.059C887.501 105.152 887.408 105.152 887.408 105.245C887.315 105.337 887.315 105.43 887.315 105.523V172.964C887.315 173.149 887.222 173.242 887.129 173.335C887.037 173.428 886.851 173.521 886.758 173.521H851.458C851.273 173.521 851.18 173.428 851.087 173.335C850.994 173.242 850.901 173.057 850.901 172.964V81.5568C850.901 81.4639 850.901 81.3711 850.901 81.3711C850.901 81.2782 850.994 81.2782 850.994 81.1853C850.994 81.0924 851.087 81.0924 851.18 80.9995C851.087 80.8137 851.18 80.8137 851.273 80.8137Z" fill="black"/>
</svg>
