<?xml version="1.0" encoding="utf-8"?>
<!-- Generator: Adobe Illustrator 24.1.2, SVG Export Plug-In . SVG Version: 6.00 Build 0)  -->
<svg version="1.1" id="레이어_1" xmlns="http://www.w3.org/2000/svg" xmlns:xlink="http://www.w3.org/1999/xlink" x="0px"
	 y="0px" viewBox="0 0 595.28 595.28" style="enable-background:new 0 0 595.28 595.28;" xml:space="preserve">
<style type="text/css">
	.st0{fill:#040000;}
</style>
<g>
	<g>
		<path class="st0" d="M299.07,143.11c13.45-30.32,39.41-53.89,71.32-64.1c-17.72-19.29-43.12-31.4-71.32-31.4
			c-28.19,0-53.6,12.11-71.32,31.4C259.65,89.23,285.62,112.8,299.07,143.11z"/>
		<path class="st0" d="M299.07,451.24c-13.55,30.54-39.78,54.24-72,64.33c17.74,19.73,43.45,32.16,72,32.16
			c28.56,0,54.26-12.43,72-32.16C338.85,505.48,312.61,481.78,299.07,451.24z"/>
		<path class="st0" d="M518.94,205.16c16.47,12.9,29.4,30.1,37.08,49.91c-6.58-40.31-22.33-77.57-45.06-109.56
			c5.76,13.81,8.95,28.95,8.95,44.82C519.91,195.35,519.56,200.3,518.94,205.16z"/>
		<path class="st0" d="M518.94,389.2c0.62,4.86,0.97,9.8,0.97,14.83c0,16.79-3.59,32.75-9.99,47.2
			c23.59-32.74,39.86-71.09,46.38-112.63C548.65,358.7,535.6,376.15,518.94,389.2z"/>
		<path class="st0" d="M145,297.18c-29.89-13.26-53.2-38.68-63.64-69.97c-18.46,17.65-29.99,42.48-29.99,69.97
			c0,27.49,11.53,52.33,29.99,69.97C91.8,335.86,115.11,310.44,145,297.18z"/>
		<path class="st0" d="M190.82,188.4c-5.53-13.57-8.6-28.4-8.6-43.93c0-18.26,4.22-35.54,11.71-50.95
			c-0.57-0.01-1.14-0.04-1.71-0.04c-53.4,0-96.85,43.45-96.85,96.85c0,0.89,0.04,1.77,0.07,2.66c15.87-8.07,33.8-12.66,52.79-12.66
			C163.25,180.33,177.61,183.21,190.82,188.4z"/>
		<path class="st0" d="M191.28,405.77c-13.33,5.31-27.85,8.26-43.06,8.26c-18.99,0-36.92-4.58-52.79-12.66
			c-0.02,0.89-0.07,1.77-0.07,2.66c0,53.4,43.45,96.85,96.85,96.85c0.42,0,0.83-0.03,1.25-0.03c-7.2-15.16-11.25-32.1-11.25-49.97
			C182.21,434.9,185.45,419.66,191.28,405.77z"/>
		<path class="st0" d="M404,405.77c5.83,13.89,9.06,29.12,9.06,45.11c0,17.87-4.05,34.81-11.25,49.97c0.42,0.01,0.83,0.03,1.25,0.03
			c53.4,0,96.85-43.45,96.85-96.85c0-0.89-0.04-1.77-0.07-2.66c-15.87,8.07-33.8,12.66-52.79,12.66
			C431.85,414.03,417.33,411.08,404,405.77z"/>
		<path class="st0" d="M205.04,520.16c-4.21,0.46-8.49,0.72-12.83,0.72c-16.97,0-33.1-3.67-47.66-10.2
			c30.26,22.01,65.36,37.73,103.38,45.25C230.91,547.61,216.2,535.27,205.04,520.16z"/>
		<path class="st0" d="M148.22,200.33c-18.23,0-35.3,5.07-49.88,13.87c9.9,38.94,43.45,68.52,84.4,72.52
			c2.27-24.36,12.05-46.56,27-64.28C193,208.63,171.56,200.33,148.22,200.33z"/>
		<path class="st0" d="M215.13,96.24c-8.2,14.21-12.92,30.68-12.92,48.23c0,23.87,8.7,45.74,23.08,62.65
			c17.6-14.37,39.45-23.7,63.34-25.83C284.77,139.82,254.67,105.87,215.13,96.24z"/>
		<path class="st0" d="M496.93,214.19c-14.58-8.79-31.65-13.87-49.88-13.87c-23.34,0-44.78,8.3-61.52,22.1
			c14.95,17.72,24.72,39.92,27,64.28C453.48,282.72,487.03,253.13,496.93,214.19z"/>
		<path class="st0" d="M393.06,144.47c0-17.55-1.86-34.02-10.06-48.23c-39.54,9.63-69.64,43.58-73.5,85.05
			c23.89,2.13,45.74,11.46,63.34,25.83C387.22,190.21,393.06,168.34,393.06,144.47z"/>
		<path class="st0" d="M202.21,450.88c0,17.19,4.52,33.34,12.41,47.36c39.49-9.4,69.69-43.01,73.93-84.23
			c-23.85-2.14-45.66-11.46-63.24-25.8C210.93,405.11,202.21,426.99,202.21,450.88z"/>
		<path class="st0" d="M390.23,520.16c-11.16,15.11-23.01,27.45-40.03,35.76c38.02-7.51,70.27-23.24,100.52-45.25
			c-14.57,6.54-30.69,10.2-47.66,10.2C398.72,520.88,394.45,520.62,390.23,520.16z"/>
		<path class="st0" d="M383.51,498.23c7.89-14.01,9.56-30.16,9.56-47.36c0-23.89-5.85-45.77-20.24-62.67
			c-17.58,14.34-39.39,23.66-63.24,25.8C313.82,455.22,344.02,488.84,383.51,498.23z"/>
		<path class="st0" d="M98.35,380.17c14.58,8.8,31.65,13.87,49.88,13.87c23.12,0,44.36-8.15,61.03-21.72
			c-14.87-17.85-24.5-40.19-26.58-64.66C141.76,311.67,108.24,341.25,98.35,380.17z"/>
		<path class="st0" d="M76.34,389.2c-16.66-13.05-29.71-30.5-37.36-50.6c6.52,41.54,22.78,79.89,46.38,112.63
			c-6.41-14.44-9.99-30.41-9.99-47.2C75.36,399,75.72,394.06,76.34,389.2z"/>
		<path class="st0" d="M389.57,74.28c4.43-0.51,8.93-0.8,13.5-0.8c15.69,0,30.65,3.13,44.33,8.76
			c-29.53-20.79-60.65-35.66-97.34-42.89C366.8,47.5,378.45,59.54,389.57,74.28z"/>
		<path class="st0" d="M205.71,74.28c11.11-14.74,25.62-26.78,42.37-34.93c-36.69,7.23-70.66,22.1-100.19,42.89
			c13.68-5.63,28.64-8.76,44.33-8.76C196.78,73.48,201.28,73.77,205.71,74.28z"/>
		<path class="st0" d="M404.46,188.4c13.21-5.19,27.57-8.07,42.59-8.07c18.99,0,36.92,4.58,52.79,12.66
			c0.02-0.89,0.07-1.77,0.07-2.66c0-53.4-43.45-96.85-96.85-96.85c-0.57,0-1.14,0.03-1.71,0.04c7.5,15.41,11.71,32.69,11.71,50.95
			C413.06,160,409.99,174.83,404.46,188.4z"/>
		<path class="st0" d="M76.34,205.16c-0.62-4.86-0.97-9.8-0.97-14.83c0-15.87,3.19-31.01,8.95-44.82
			c-22.73,31.99-38.48,69.25-45.06,109.56C46.93,235.26,59.86,218.05,76.34,205.16z"/>
		<path class="st0" d="M412.6,307.65c-2.08,24.46-11.72,46.8-26.58,64.66c16.67,13.57,37.91,21.72,61.03,21.72
			c18.23,0,35.3-5.07,49.88-13.87C487.03,341.25,453.52,311.67,412.6,307.65z"/>
		<path class="st0" d="M450.27,297.18c29.89,13.26,53.2,38.69,63.64,69.97c18.46-17.65,29.99-42.48,29.99-69.97
			c0-27.49-11.53-52.32-29.99-69.97C503.48,258.49,480.16,283.92,450.27,297.18z"/>
	</g>
	<g>
		<path class="st0" d="M298.91,203.35c-52.44,0-94.96,42.51-94.96,94.96s42.51,94.96,94.96,94.96c52.44,0,94.95-42.51,94.95-94.96
			S351.35,203.35,298.91,203.35z M259.12,259.35c10.21,0,18.49,8.28,18.49,18.49c0,10.21-8.28,18.49-18.49,18.49
			c-10.21,0-18.49-8.28-18.49-18.49C240.63,267.63,248.91,259.35,259.12,259.35z M259.16,340.94c-10.21,0-18.49-8.28-18.49-18.49
			c0-10.21,8.28-18.49,18.49-18.49c10.21,0,18.49,8.28,18.49,18.49C277.65,332.66,269.37,340.94,259.16,340.94z M298.75,360.56
			c-9.83,0-17.8-7.97-17.8-17.8s7.97-17.8,17.8-17.8c9.83,0,17.8,7.97,17.8,17.8S308.58,360.56,298.75,360.56z M298.75,319.14
			c-10.21,0-18.49-8.28-18.49-18.49c0-10.21,8.28-18.49,18.49-18.49s18.49,8.28,18.49,18.49
			C317.24,310.86,308.96,319.14,298.75,319.14z M298.91,275.24c-10.21,0-18.49-8.28-18.49-18.49c0-10.21,8.28-18.49,18.49-18.49
			c10.21,0,18.49,8.28,18.49,18.49C317.4,266.96,309.12,275.24,298.91,275.24z M338.67,340.94c-10.21,0-18.49-8.28-18.49-18.49
			c0-10.21,8.28-18.49,18.49-18.49c10.21,0,18.49,8.28,18.49,18.49C357.16,332.66,348.88,340.94,338.67,340.94z M338.67,296.34
			c-10.21,0-18.49-8.28-18.49-18.49c0-10.21,8.28-18.49,18.49-18.49c10.21,0,18.49,8.28,18.49,18.49
			C357.16,288.06,348.88,296.34,338.67,296.34z"/>
	</g>
</g>
</svg>
